<mxfile host="app.diagrams.net" modified="2023-11-28T13:12:59.263Z" agent="Mozilla/5.0 (Windows NT 10.0; Win64; x64) AppleWebKit/537.36 (KHTML, like Gecko) Chrome/119.0.0.0 Safari/537.36" etag="6bVrOG1yoNEiEemSfqPG" version="22.1.4" type="google">
  <diagram id="R2lEEEUBdFMjLlhIrx00" name="Page-1">
    <mxGraphModel grid="1" page="1" gridSize="10" guides="1" tooltips="1" connect="1" arrows="1" fold="1" pageScale="1" pageWidth="850" pageHeight="1100" math="0" shadow="0" extFonts="Permanent Marker^https://fonts.googleapis.com/css?family=Permanent+Marker">
      <root>
        <mxCell id="0" />
        <mxCell id="1" parent="0" />
        <mxCell id="Cc97kHOcbt4AoApOr5a6-3" value="giocatore 2" style="shape=umlActor;verticalLabelPosition=bottom;verticalAlign=top;html=1;outlineConnect=0;" vertex="1" parent="1">
          <mxGeometry x="100" y="410" width="30" height="60" as="geometry" />
        </mxCell>
        <mxCell id="Cc97kHOcbt4AoApOr5a6-6" value="posiziona navi" style="ellipse;whiteSpace=wrap;html=1;" vertex="1" parent="1">
          <mxGeometry x="305" y="150" width="120" height="80" as="geometry" />
        </mxCell>
        <mxCell id="Cc97kHOcbt4AoApOr5a6-8" value="server" style="rounded=0;whiteSpace=wrap;html=1;" vertex="1" parent="1">
          <mxGeometry x="740" y="240" width="80" height="40" as="geometry" />
        </mxCell>
        <mxCell id="Cc97kHOcbt4AoApOr5a6-12" value="scelta coordinate dove sparare" style="ellipse;whiteSpace=wrap;html=1;" vertex="1" parent="1">
          <mxGeometry x="305" y="380" width="120" height="80" as="geometry" />
        </mxCell>
        <mxCell id="Cc97kHOcbt4AoApOr5a6-16" value="scelta nome e scermate iniziali" style="ellipse;whiteSpace=wrap;html=1;" vertex="1" parent="1">
          <mxGeometry x="300" y="40" width="120" height="80" as="geometry" />
        </mxCell>
        <mxCell id="Cc97kHOcbt4AoApOr5a6-17" value="schermata di fine gioco" style="ellipse;whiteSpace=wrap;html=1;" vertex="1" parent="1">
          <mxGeometry x="300" y="520" width="120" height="80" as="geometry" />
        </mxCell>
        <mxCell id="Cc97kHOcbt4AoApOr5a6-18" value="attesa giocatore avversario" style="ellipse;whiteSpace=wrap;html=1;" vertex="1" parent="1">
          <mxGeometry x="305" y="260" width="120" height="80" as="geometry" />
        </mxCell>
        <mxCell id="Cc97kHOcbt4AoApOr5a6-25" value="" style="endArrow=none;html=1;rounded=0;entryX=0;entryY=0.5;entryDx=0;entryDy=0;" edge="1" parent="1" target="Cc97kHOcbt4AoApOr5a6-16">
          <mxGeometry width="50" height="50" relative="1" as="geometry">
            <mxPoint x="140" y="150" as="sourcePoint" />
            <mxPoint x="190" y="100" as="targetPoint" />
          </mxGeometry>
        </mxCell>
        <mxCell id="Cc97kHOcbt4AoApOr5a6-26" value="" style="endArrow=none;html=1;rounded=0;entryX=0;entryY=0.5;entryDx=0;entryDy=0;" edge="1" parent="1" target="Cc97kHOcbt4AoApOr5a6-6">
          <mxGeometry width="50" height="50" relative="1" as="geometry">
            <mxPoint x="150" y="160" as="sourcePoint" />
            <mxPoint x="200" y="110" as="targetPoint" />
          </mxGeometry>
        </mxCell>
        <mxCell id="Cc97kHOcbt4AoApOr5a6-27" value="" style="endArrow=none;html=1;rounded=0;entryX=0;entryY=0.5;entryDx=0;entryDy=0;" edge="1" parent="1" target="Cc97kHOcbt4AoApOr5a6-18">
          <mxGeometry width="50" height="50" relative="1" as="geometry">
            <mxPoint x="150" y="180" as="sourcePoint" />
            <mxPoint x="200" y="130" as="targetPoint" />
          </mxGeometry>
        </mxCell>
        <mxCell id="Cc97kHOcbt4AoApOr5a6-28" value="" style="endArrow=none;html=1;rounded=0;entryX=0;entryY=0.5;entryDx=0;entryDy=0;" edge="1" parent="1" target="Cc97kHOcbt4AoApOr5a6-12">
          <mxGeometry width="50" height="50" relative="1" as="geometry">
            <mxPoint x="120" y="190" as="sourcePoint" />
            <mxPoint x="170" y="140" as="targetPoint" />
          </mxGeometry>
        </mxCell>
        <mxCell id="Cc97kHOcbt4AoApOr5a6-29" value="" style="endArrow=none;html=1;rounded=0;entryX=0.017;entryY=0.588;entryDx=0;entryDy=0;entryPerimeter=0;" edge="1" parent="1" target="Cc97kHOcbt4AoApOr5a6-17">
          <mxGeometry width="50" height="50" relative="1" as="geometry">
            <mxPoint x="100" y="190" as="sourcePoint" />
            <mxPoint x="620" y="430" as="targetPoint" />
          </mxGeometry>
        </mxCell>
        <mxCell id="Cc97kHOcbt4AoApOr5a6-30" value="giocatore 1" style="shape=umlActor;verticalLabelPosition=bottom;verticalAlign=top;html=1;outlineConnect=0;" vertex="1" parent="1">
          <mxGeometry x="100" y="110" width="30" height="60" as="geometry" />
        </mxCell>
        <mxCell id="Cc97kHOcbt4AoApOr5a6-32" value="" style="endArrow=none;html=1;rounded=0;entryX=0;entryY=1;entryDx=0;entryDy=0;" edge="1" parent="1" target="Cc97kHOcbt4AoApOr5a6-16">
          <mxGeometry width="50" height="50" relative="1" as="geometry">
            <mxPoint x="140" y="400" as="sourcePoint" />
            <mxPoint x="190" y="350" as="targetPoint" />
          </mxGeometry>
        </mxCell>
        <mxCell id="Cc97kHOcbt4AoApOr5a6-33" value="" style="endArrow=none;html=1;rounded=0;entryX=0.058;entryY=0.838;entryDx=0;entryDy=0;entryPerimeter=0;" edge="1" parent="1" target="Cc97kHOcbt4AoApOr5a6-6">
          <mxGeometry width="50" height="50" relative="1" as="geometry">
            <mxPoint x="150" y="440" as="sourcePoint" />
            <mxPoint x="200" y="390" as="targetPoint" />
          </mxGeometry>
        </mxCell>
        <mxCell id="Cc97kHOcbt4AoApOr5a6-34" value="" style="endArrow=none;html=1;rounded=0;entryX=0;entryY=1;entryDx=0;entryDy=0;" edge="1" parent="1" target="Cc97kHOcbt4AoApOr5a6-18">
          <mxGeometry width="50" height="50" relative="1" as="geometry">
            <mxPoint x="170" y="470" as="sourcePoint" />
            <mxPoint x="220" y="420" as="targetPoint" />
          </mxGeometry>
        </mxCell>
        <mxCell id="Cc97kHOcbt4AoApOr5a6-35" value="" style="endArrow=none;html=1;rounded=0;" edge="1" parent="1">
          <mxGeometry width="50" height="50" relative="1" as="geometry">
            <mxPoint x="160" y="490" as="sourcePoint" />
            <mxPoint x="300" y="430" as="targetPoint" />
          </mxGeometry>
        </mxCell>
        <mxCell id="Cc97kHOcbt4AoApOr5a6-36" value="" style="endArrow=none;html=1;rounded=0;entryX=0.017;entryY=0.675;entryDx=0;entryDy=0;entryPerimeter=0;" edge="1" parent="1" target="Cc97kHOcbt4AoApOr5a6-17">
          <mxGeometry width="50" height="50" relative="1" as="geometry">
            <mxPoint x="130" y="510" as="sourcePoint" />
            <mxPoint x="180" y="460" as="targetPoint" />
          </mxGeometry>
        </mxCell>
        <mxCell id="Cc97kHOcbt4AoApOr5a6-37" value="" style="endArrow=none;html=1;rounded=0;" edge="1" parent="1" target="Cc97kHOcbt4AoApOr5a6-8">
          <mxGeometry width="50" height="50" relative="1" as="geometry">
            <mxPoint x="420" y="190" as="sourcePoint" />
            <mxPoint x="470" y="140" as="targetPoint" />
          </mxGeometry>
        </mxCell>
        <mxCell id="Cc97kHOcbt4AoApOr5a6-38" value="" style="endArrow=none;html=1;rounded=0;" edge="1" parent="1" target="Cc97kHOcbt4AoApOr5a6-8">
          <mxGeometry width="50" height="50" relative="1" as="geometry">
            <mxPoint x="420" y="310" as="sourcePoint" />
            <mxPoint x="470" y="260" as="targetPoint" />
          </mxGeometry>
        </mxCell>
        <mxCell id="Cc97kHOcbt4AoApOr5a6-39" value="" style="endArrow=none;html=1;rounded=0;" edge="1" parent="1" target="Cc97kHOcbt4AoApOr5a6-8">
          <mxGeometry width="50" height="50" relative="1" as="geometry">
            <mxPoint x="420" y="430" as="sourcePoint" />
            <mxPoint x="470" y="380" as="targetPoint" />
          </mxGeometry>
        </mxCell>
      </root>
    </mxGraphModel>
  </diagram>
</mxfile>
